<svg id="Layer_1" data-name="Layer 1" xmlns="http://www.w3.org/2000/svg" viewBox="0 0 800 800"><defs><style>.cls-1{fill:#b5b5b5}.cls-2{fill:#3a3a3a}</style></defs><title>no-product-image</title><path class="cls-1" d="M402.7 193.7a127.1 127.1 0 1 0 127.1 127 127.1 127.1 0 0 0-127.1-127zm0 217.6a90.5 90.5 0 1 1 90.5-90.5 90.5 90.5 0 0 1-90.5 90.5zm90.5-284.4c0-11-11.4-20-25.5-20H354c-14.1 0-25.5 9-25.5 20v22.7h164.7zm-184.5 10.5a13.3 13.3 0 0 0-13.3-13.3h-47.6a13.3 13.3 0 0 0-13.3 13.3v12.2h74.3z"/><path class="cls-1" d="M559.6 158.9H231.9a45 45 0 0 0-45 45v169.4a45 45 0 0 0 45 45h70.7a139.8 139.8 0 1 1 200.2 0h56.8a45 45 0 0 0 45-45V203.9a45 45 0 0 0-45-45zm10.8 52.2H524a12.5 12.5 0 0 1 0-24.9h46.4a12.5 12.5 0 0 1 0 24.9z"/><path class="cls-2" d="M172.5 524.1q8.6 0 13 4.4t4.4 12.4q0 8-4.4 12.4t-13 4.4h-17.3V581h-7.6v-56.9zm-2.5 27.3q6.4.1 9.4-2.6t3-7.8q0-5.1-3-7.8t-9.4-2.7h-14.8v20.9zm31.7-11.6v8.7h.2a18.3 18.3 0 0 1 6-7.4 15.2 15.2 0 0 1 9.1-2.2v7.1a19.1 19.1 0 0 0-6.9 1.1 10.9 10.9 0 0 0-4.6 3.3 13.5 13.5 0 0 0-2.5 5.2 28.1 28.1 0 0 0-.8 7V581h-6.8v-41.2zm17.8 12.2a19.2 19.2 0 0 1 3.8-6.8 18 18 0 0 1 6.3-4.6 23 23 0 0 1 17.2 0 18.1 18.1 0 0 1 6.2 4.6 19.2 19.2 0 0 1 3.8 6.8 27.4 27.4 0 0 1 1.3 8.5 27.1 27.1 0 0 1-1.3 8.4 19.3 19.3 0 0 1-3.8 6.8 17.6 17.6 0 0 1-6.2 4.5 23.6 23.6 0 0 1-17.2 0 17.5 17.5 0 0 1-6.3-4.5 19.2 19.2 0 0 1-3.8-6.8 27 27 0 0 1-1.3-8.4 27.4 27.4 0 0 1 1.3-8.5zm6.9 15.1a13.9 13.9 0 0 0 2.7 4.9 11.9 11.9 0 0 0 4.1 3 12.5 12.5 0 0 0 9.9 0 11.9 11.9 0 0 0 4.1-3 13.9 13.9 0 0 0 2.7-4.9 22.7 22.7 0 0 0 0-13.3 14.4 14.4 0 0 0-2.7-4.9 11.7 11.7 0 0 0-4.1-3 12.5 12.5 0 0 0-9.9 0 11.7 11.7 0 0 0-4.1 3 14.3 14.3 0 0 0-2.7 4.9 22.7 22.7 0 0 0 0 13.3zm68.4 13.9v-5.6h-.2a10 10 0 0 1-5.3 4.9 20.1 20.1 0 0 1-7.9 1.5 18.6 18.6 0 0 1-8.3-1.8 17.1 17.1 0 0 1-5.9-4.7 20.4 20.4 0 0 1-3.5-6.8 28.1 28.1 0 0 1-1.2-8.3 29 29 0 0 1 1.2-8.3 19.5 19.5 0 0 1 3.5-6.8 16.9 16.9 0 0 1 5.9-4.6 18.7 18.7 0 0 1 8.2-1.7l3.4.3a17.4 17.4 0 0 1 3.7 1.1 15.7 15.7 0 0 1 3.5 2 10.9 10.9 0 0 1 2.7 3.1h.2v-21.2h6.8V581zm-24.3-14.6a15.1 15.1 0 0 0 2.3 4.9 11.3 11.3 0 0 0 4 3.4 12.1 12.1 0 0 0 5.7 1.3 11.2 11.2 0 0 0 9.7-4.9 14.8 14.8 0 0 0 2.2-5 24.1 24.1 0 0 0 0-11.5 14.5 14.5 0 0 0-2.3-5 11.6 11.6 0 0 0-4-3.5 12.6 12.6 0 0 0-6-1.3 11.6 11.6 0 0 0-5.8 1.4 10.8 10.8 0 0 0-3.8 3.6 15.6 15.6 0 0 0-2.1 5.1 27 27 0 0 0-.6 5.9 21 21 0 0 0 .6 5.6zm67.4 14.6v-6.5h-.2a13.8 13.8 0 0 1-5.5 5.6 16.5 16.5 0 0 1-7.9 1.8 18.4 18.4 0 0 1-6.8-1.1 10.8 10.8 0 0 1-4.4-3.1 11.5 11.5 0 0 1-2.3-4.7 25.4 25.4 0 0 1-.7-6.1v-27.1h6.9v27.9a8.2 8.2 0 0 0 2.2 6 8.3 8.3 0 0 0 6.1 2.2 13.8 13.8 0 0 0 5.4-1 10.1 10.1 0 0 0 3.8-2.7 11.7 11.7 0 0 0 2.3-4.1 16.7 16.7 0 0 0 .8-5.1v-23.2h6.8V581zm39.8-34a10.3 10.3 0 0 0-6.8-2.1 12.6 12.6 0 0 0-6.1 1.4 10.9 10.9 0 0 0-3.9 3.6 15 15 0 0 0-2.1 5.1 27.9 27.9 0 0 0-.6 6 22.9 22.9 0 0 0 .7 5.6 14.9 14.9 0 0 0 2.1 4.8 10.7 10.7 0 0 0 3.7 3.4 11.2 11.2 0 0 0 5.5 1.3q5 0 7.8-2.6a11.9 11.9 0 0 0 3.5-7.4h6.9q-1.1 7.6-5.7 11.8t-12.5 4.1a21.4 21.4 0 0 1-8.3-1.5 16.1 16.1 0 0 1-6-4.3 18.6 18.6 0 0 1-3.7-6.6 27.7 27.7 0 0 1-1.2-8.5 30.2 30.2 0 0 1 1.2-8.6 20 20 0 0 1 3.6-7 17 17 0 0 1 6.1-4.7 19.9 19.9 0 0 1 8.5-1.7 24.9 24.9 0 0 1 6.6.8 16 16 0 0 1 5.4 2.6 14.1 14.1 0 0 1 3.9 4.4 16.3 16.3 0 0 1 1.9 6.3h-7a10.3 10.3 0 0 0-3.5-6.2zm34.6-7.2v6h-8.2v25.6a7.4 7.4 0 0 0 .2 1.9 2 2 0 0 0 .8 1.1 3.3 3.3 0 0 0 1.6.5h5.7v6h-5.2a24.3 24.3 0 0 1-4.5-.4 6.6 6.6 0 0 1-3-1.3 5.6 5.6 0 0 1-1.7-2.7 15.6 15.6 0 0 1-.6-4.6v-26.1h-7v-6h7v-12.3h6.8v12.3zm38.6-15.7V581h-7.6v-56.9zm16.2 15.7v6h.2a16 16 0 0 1 20.2-5.4 8.9 8.9 0 0 1 4.4 5.4 14.4 14.4 0 0 1 5.5-5.2 15.4 15.4 0 0 1 7.4-1.8 21.6 21.6 0 0 1 5.6.7 11.7 11.7 0 0 1 4.3 2.1 9.6 9.6 0 0 1 2.8 3.7 13.5 13.5 0 0 1 1 5.5V581h-6.8v-27a19.2 19.2 0 0 0-.3-3.6 7.3 7.3 0 0 0-1.2-2.9 6 6 0 0 0-2.4-2 9.7 9.7 0 0 0-4-.7 10.7 10.7 0 0 0-7.9 2.9 10.3 10.3 0 0 0-2.9 7.6V581h-6.8v-27a17.5 17.5 0 0 0-.4-3.7 7.8 7.8 0 0 0-1.2-2.9 5.8 5.8 0 0 0-2.3-1.9 9.1 9.1 0 0 0-3.8-.7 10.1 10.1 0 0 0-5.1 1.2 11.4 11.4 0 0 0-5.3 6.3 9.8 9.8 0 0 0-.6 3V581h-6.8v-41.2zm96.4 41a9.6 9.6 0 0 1-4.9 1 5.8 5.8 0 0 1-4.2-1.5q-1.6-1.5-1.6-4.8a16.2 16.2 0 0 1-6.5 4.8 22.4 22.4 0 0 1-13.3.8 12.3 12.3 0 0 1-4.3-2 9.5 9.5 0 0 1-2.9-3.5 11.9 11.9 0 0 1-1.1-5.3 12.1 12.1 0 0 1 1.2-5.7 10.4 10.4 0 0 1 3.1-3.6 14.4 14.4 0 0 1 4.5-2.1l5.1-1.2 5.3-.8a29.3 29.3 0 0 0 4.4-.8 7.3 7.3 0 0 0 3-1.5 3.7 3.7 0 0 0 1.1-2.9 6.8 6.8 0 0 0-.8-3.6 5.7 5.7 0 0 0-2.1-2.1 8.7 8.7 0 0 0-2.9-1l-3.2-.2a14.3 14.3 0 0 0-7.2 1.6q-2.9 1.6-3.1 6.2h-6.8a14.6 14.6 0 0 1 1.6-6.4 12.1 12.1 0 0 1 3.8-4.3 16.1 16.1 0 0 1 5.5-2.3 28.8 28.8 0 0 1 6.6-.7 38.6 38.6 0 0 1 5.5.4 14.5 14.5 0 0 1 5 1.6 9.5 9.5 0 0 1 3.6 3.5 11 11 0 0 1 1.4 5.8v21.1a15.7 15.7 0 0 0 .3 3.5q.3 1.1 1.9 1.1l2.1-.3zm-11-21.1a8.4 8.4 0 0 1-3.3 1.4l-4.3.7-4.6.6a16.9 16.9 0 0 0-4.1 1.1 7.5 7.5 0 0 0-3 2.3 6.3 6.3 0 0 0-1.2 4 5.4 5.4 0 0 0 .7 2.8 5.6 5.6 0 0 0 1.8 1.9 7.4 7.4 0 0 0 2.5 1 14 14 0 0 0 3 .3 16.1 16.1 0 0 0 5.7-.9 12.1 12.1 0 0 0 3.9-2.3 9.1 9.1 0 0 0 2.2-3 7.6 7.6 0 0 0 .7-3zm46.6 32.9q-4.6 5-14.5 5a28 28 0 0 1-5.9-.6 17.9 17.9 0 0 1-5.4-2.1 12.6 12.6 0 0 1-4-3.7 10.6 10.6 0 0 1-1.8-5.7h6.8a5 5 0 0 0 1.2 3.1 8.4 8.4 0 0 0 2.6 2.1 12.8 12.8 0 0 0 3.4 1.2 18.2 18.2 0 0 0 3.5.4 12.6 12.6 0 0 0 5.7-1.2 10.6 10.6 0 0 0 3.8-3.2 13.2 13.2 0 0 0 2.2-4.9 27.4 27.4 0 0 0 .7-6.3V574h-.2a11.4 11.4 0 0 1-5.3 5.6 16.4 16.4 0 0 1-7.5 1.8 18.1 18.1 0 0 1-8-1.7 16.8 16.8 0 0 1-5.7-4.5 19.1 19.1 0 0 1-3.5-6.6 27.2 27.2 0 0 1-1.2-8 31.3 31.3 0 0 1 1-7.5 20.5 20.5 0 0 1 3.2-7 17.5 17.5 0 0 1 5.9-5.2 18.3 18.3 0 0 1 9-2 15.2 15.2 0 0 1 7.2 1.7 12.1 12.1 0 0 1 5.1 5.1h.1v-5.9h6.4v37.6q-.2 10.2-4.8 15.2zm-8.6-18.5a11.1 11.1 0 0 0 3.8-3.7 16.7 16.7 0 0 0 2.1-5.1 24.9 24.9 0 0 0 .7-5.7 22.6 22.6 0 0 0-.6-5.3 14.9 14.9 0 0 0-2-4.7 10.6 10.6 0 0 0-3.6-3.4 10.8 10.8 0 0 0-5.4-1.3 11.7 11.7 0 0 0-5.6 1.2 10.8 10.8 0 0 0-3.8 3.3 14 14 0 0 0-2.1 4.8 23.2 23.2 0 0 0-.7 5.7 28.3 28.3 0 0 0 .6 5.6 15.8 15.8 0 0 0 1.9 5.1 10.7 10.7 0 0 0 3.6 3.7 10.3 10.3 0 0 0 5.6 1.4 11 11 0 0 0 5.4-1.6zm51.1 4.2a18.7 18.7 0 0 1-11.6 3.5 21.1 21.1 0 0 1-8.6-1.6 16.9 16.9 0 0 1-6.1-4.5 18.9 18.9 0 0 1-3.7-6.8 32.9 32.9 0 0 1-1.4-8.7 24.8 24.8 0 0 1 1.4-8.6 20.5 20.5 0 0 1 4-6.8 18.2 18.2 0 0 1 6.1-4.5 18.7 18.7 0 0 1 7.8-1.6 16.9 16.9 0 0 1 9.1 2.3 18 18 0 0 1 5.8 5.8 22.8 22.8 0 0 1 3 7.6 32.8 32.8 0 0 1 .7 7.9h-30.7a16.3 16.3 0 0 0 .6 5.1 11.6 11.6 0 0 0 2.3 4.3 11.4 11.4 0 0 0 4.1 3 14 14 0 0 0 5.8 1.1 11.7 11.7 0 0 0 7-2 9.6 9.6 0 0 0 3.6-6h6.7q-1.3 7-5.9 10.5zm-1.6-26.4a11.6 11.6 0 0 0-2.5-3.7 11.7 11.7 0 0 0-3.7-2.5 11.6 11.6 0 0 0-4.7-.9 11.8 11.8 0 0 0-4.7.9 10.9 10.9 0 0 0-3.6 2.5 12 12 0 0 0-2.4 3.7 14.1 14.1 0 0 0-1 4.5H641a13.9 13.9 0 0 0-1-4.5zm-441.7 75.8a17.6 17.6 0 0 0-10.3-3 18.5 18.5 0 0 0-8.7 1.9 17.2 17.2 0 0 0-6 5.1 22.2 22.2 0 0 0-3.5 7.4 32.9 32.9 0 0 0-1.1 8.6 36.8 36.8 0 0 0 1.1 9.2 22 22 0 0 0 3.5 7.6 17.1 17.1 0 0 0 6 5.1 18.7 18.7 0 0 0 8.8 1.9 16.9 16.9 0 0 0 6.6-1.2 15 15 0 0 0 5-3.4 15.7 15.7 0 0 0 3.3-5.2 21.7 21.7 0 0 0 1.4-6.5h7.6q-1.1 10.7-7.4 16.7t-17.2 6a27.4 27.4 0 0 1-11.5-2.3 22.7 22.7 0 0 1-8.2-6.2 26.8 26.8 0 0 1-4.9-9.4 40.1 40.1 0 0 1-1.6-11.6 37.9 37.9 0 0 1 1.8-11.7 28.1 28.1 0 0 1 5.1-9.5 23.9 23.9 0 0 1 8.4-6.4 27.2 27.2 0 0 1 11.6-2.3 29.2 29.2 0 0 1 8.4 1.2 22.7 22.7 0 0 1 7.1 3.5 19.7 19.7 0 0 1 5.2 5.8 21.2 21.2 0 0 1 2.7 8h-7.6a14.1 14.1 0 0 0-5.6-9.3zm19.6 19.8a19.2 19.2 0 0 1 3.8-6.8 18 18 0 0 1 6.3-4.6 23 23 0 0 1 17.2 0 18.1 18.1 0 0 1 6.2 4.6 19.2 19.2 0 0 1 3.8 6.8 27.4 27.4 0 0 1 1.3 8.5 27.1 27.1 0 0 1-1.3 8.4 19.3 19.3 0 0 1-3.8 6.8 17.6 17.6 0 0 1-6.2 4.5 23.6 23.6 0 0 1-17.2 0 17.5 17.5 0 0 1-6.3-4.5 19.2 19.2 0 0 1-3.8-6.8 27 27 0 0 1-1.3-8.4 27.4 27.4 0 0 1 1.3-8.5zm6.9 15.1a13.9 13.9 0 0 0 2.7 4.9 11.9 11.9 0 0 0 4.1 3 12.5 12.5 0 0 0 9.9 0 11.9 11.9 0 0 0 4.1-3 13.9 13.9 0 0 0 2.7-4.9 22.7 22.7 0 0 0 0-13.3 14.4 14.4 0 0 0-2.7-4.9 11.7 11.7 0 0 0-4.1-3 12.5 12.5 0 0 0-9.9 0 11.7 11.7 0 0 0-4.1 3 14.3 14.3 0 0 0-2.7 4.9 22.7 22.7 0 0 0 0 13.3zm44.7-27.3v6h.2a16 16 0 0 1 20.2-5.4 8.9 8.9 0 0 1 4.4 5.4 14.4 14.4 0 0 1 5.5-5.2 15.4 15.4 0 0 1 7.4-1.8 21.6 21.6 0 0 1 5.6.7 11.6 11.6 0 0 1 4.3 2.1 9.6 9.6 0 0 1 2.8 3.7 13.5 13.5 0 0 1 1 5.5v30.2H314v-27a19.2 19.2 0 0 0-.3-3.6 7.3 7.3 0 0 0-1.2-2.9 6 6 0 0 0-2.4-2 9.7 9.7 0 0 0-4-.7 10.6 10.6 0 0 0-7.9 2.9 10.3 10.3 0 0 0-2.9 7.6v25.6h-6.8v-27a17.5 17.5 0 0 0-.4-3.7 7.8 7.8 0 0 0-1.2-2.9 5.8 5.8 0 0 0-2.3-1.9 9.1 9.1 0 0 0-3.8-.7 10.1 10.1 0 0 0-5.1 1.2 11.5 11.5 0 0 0-5.3 6.3 9.8 9.8 0 0 0-.6 3v25.6H263v-41zm60.1-7.4v-8.3h6.8v8.3zm6.8 7.4v41.2h-6.8v-41.2zm15.2 0v6.5h.2q4.2-7.5 13.4-7.5a17.9 17.9 0 0 1 6.8 1.1 11.1 11.1 0 0 1 4.4 3.1 11.5 11.5 0 0 1 2.3 4.7 25.5 25.5 0 0 1 .7 6.1v27.1h-6.8v-27.8a8.2 8.2 0 0 0-2.2-6 8.3 8.3 0 0 0-6.1-2.2 13.8 13.8 0 0 0-5.4 1 10.1 10.1 0 0 0-3.9 2.6 11.7 11.7 0 0 0-2.3 4.1 16.7 16.7 0 0 0-.8 5.1v23.2h-6.8v-41.1zm67.3 52.8q-4.6 5-14.5 5a28 28 0 0 1-5.9-.6 17.9 17.9 0 0 1-5.4-2.1 12.6 12.6 0 0 1-4-3.7 10.6 10.6 0 0 1-1.8-5.7h6.8a5 5 0 0 0 1.2 3.1 8.4 8.4 0 0 0 2.6 2.1 12.8 12.8 0 0 0 3.4 1.2 18.2 18.2 0 0 0 3.5.4 12.6 12.6 0 0 0 5.7-1.2 10.6 10.6 0 0 0 3.8-3.2 13.2 13.2 0 0 0 2.2-4.9 27.4 27.4 0 0 0 .7-6.3v-2.7h-.2a11.4 11.4 0 0 1-5.3 5.6 16.4 16.4 0 0 1-7.5 1.8 18.1 18.1 0 0 1-8-1.7 16.8 16.8 0 0 1-5.7-4.5 19.1 19.1 0 0 1-3.5-6.6 27.2 27.2 0 0 1-1.2-8 31.3 31.3 0 0 1 1-7.5 20.5 20.5 0 0 1 3.2-7 17.4 17.4 0 0 1 5.9-5.2 18.3 18.3 0 0 1 9-2 15.2 15.2 0 0 1 7.2 1.7 12.1 12.1 0 0 1 5.1 5.1h.1v-5.9h6.4V673q-.2 10.1-4.8 15.1zm-8.6-18.5a11.1 11.1 0 0 0 3.8-3.7 16.7 16.7 0 0 0 2.1-5.1 24.9 24.9 0 0 0 .7-5.7 22.6 22.6 0 0 0-.6-5.3 14.9 14.9 0 0 0-2-4.7 10.6 10.6 0 0 0-3.6-3.4 10.8 10.8 0 0 0-5.4-1.3 11.7 11.7 0 0 0-5.6 1.2 10.8 10.8 0 0 0-3.8 3.3 14 14 0 0 0-2.1 4.8 23.2 23.2 0 0 0-.7 5.7 28.3 28.3 0 0 0 .6 5.6 15.8 15.8 0 0 0 1.9 5.1 10.7 10.7 0 0 0 3.6 3.7 10.3 10.3 0 0 0 5.6 1.4 11 11 0 0 0 5.4-1.6zm75.1-42.2a16 16 0 0 0-9.7-2.7 23.1 23.1 0 0 0-4.7.5 12.5 12.5 0 0 0-4.1 1.6 8.4 8.4 0 0 0-2.9 3 9.2 9.2 0 0 0-1.1 4.7 5.9 5.9 0 0 0 1.6 4.3 11.5 11.5 0 0 0 4.1 2.7 34.6 34.6 0 0 0 5.9 1.7l6.6 1.5q3.4.8 6.6 1.9a22 22 0 0 1 5.9 2.9 13.9 13.9 0 0 1 4.1 4.6 16.2 16.2 0 0 1-.5 14.8 16.7 16.7 0 0 1-5.2 5.3 22.7 22.7 0 0 1-7.1 2.9 34.6 34.6 0 0 1-7.8.9 33.3 33.3 0 0 1-9-1.2 22.3 22.3 0 0 1-7.5-3.6 17.2 17.2 0 0 1-5.1-6.2 20 20 0 0 1-1.9-9h7.2a12.8 12.8 0 0 0 1.4 6.2 12.6 12.6 0 0 0 3.7 4.3 15.4 15.4 0 0 0 5.3 2.5 24.3 24.3 0 0 0 6.2.8 28.2 28.2 0 0 0 5.1-.5 15.1 15.1 0 0 0 4.7-1.6 8.7 8.7 0 0 0 4.6-8.2 7.1 7.1 0 0 0-1.6-4.8 11.4 11.4 0 0 0-4.1-3 30.4 30.4 0 0 0-5.9-1.9l-6.6-1.5-6.6-1.8a24 24 0 0 1-5.9-2.6 12.6 12.6 0 0 1-4.1-4.2 12.4 12.4 0 0 1-1.6-6.5 15.1 15.1 0 0 1 1.8-7.4 15.3 15.3 0 0 1 4.7-5.2 20.9 20.9 0 0 1 6.6-3 29.1 29.1 0 0 1 7.6-1 30.4 30.4 0 0 1 8.1 1 18.4 18.4 0 0 1 6.6 3.3 15.8 15.8 0 0 1 4.5 5.6 20.1 20.1 0 0 1 1.8 8.1h-7.2q-.7-6.4-4.5-9.2zm19.7 20.1a19.2 19.2 0 0 1 3.8-6.8 18 18 0 0 1 6.3-4.6 23 23 0 0 1 17.2 0 18.1 18.1 0 0 1 6.2 4.6 19.2 19.2 0 0 1 3.8 6.8 27.4 27.4 0 0 1 1.3 8.5 27 27 0 0 1-1.3 8.4 19.3 19.3 0 0 1-3.8 6.8 17.6 17.6 0 0 1-6.2 4.5 23.6 23.6 0 0 1-17.2 0 17.5 17.5 0 0 1-6.3-4.5 19.2 19.2 0 0 1-3.8-6.8 27 27 0 0 1-1.3-8.4 27.4 27.4 0 0 1 1.3-8.5zm6.9 15.1a13.9 13.9 0 0 0 2.7 4.9 11.9 11.9 0 0 0 4.1 3 12.5 12.5 0 0 0 9.9 0 11.9 11.9 0 0 0 4.1-3 13.9 13.9 0 0 0 2.7-4.9 22.7 22.7 0 0 0 0-13.3 14.4 14.4 0 0 0-2.7-4.9 11.7 11.7 0 0 0-4.1-3 12.5 12.5 0 0 0-9.9 0 11.7 11.7 0 0 0-4.1 3 14.3 14.3 0 0 0-2.7 4.9 22.7 22.7 0 0 0 0 13.3zm37.4-15.1a19.2 19.2 0 0 1 3.8-6.8 18 18 0 0 1 6.3-4.6 23 23 0 0 1 17.2 0 18.1 18.1 0 0 1 6.2 4.6 19.2 19.2 0 0 1 3.8 6.8 27.4 27.4 0 0 1 1.3 8.5 27 27 0 0 1-1.3 8.4 19.3 19.3 0 0 1-3.8 6.8 17.6 17.6 0 0 1-6.2 4.5 23.6 23.6 0 0 1-17.2 0 17.5 17.5 0 0 1-6.3-4.5 19.2 19.2 0 0 1-3.8-6.8 27 27 0 0 1-1.3-8.4 27.4 27.4 0 0 1 1.3-8.5zm6.9 15.1a13.9 13.9 0 0 0 2.7 4.9 11.9 11.9 0 0 0 4.1 3 12.5 12.5 0 0 0 9.9 0 11.9 11.9 0 0 0 4.1-3 13.9 13.9 0 0 0 2.7-4.9 22.7 22.7 0 0 0 0-13.3 14.4 14.4 0 0 0-2.7-4.9 11.7 11.7 0 0 0-4.1-3 12.5 12.5 0 0 0-9.9 0 11.7 11.7 0 0 0-4.1 3 14.3 14.3 0 0 0-2.7 4.9 22.7 22.7 0 0 0 0 13.3zm44.7-27.3v6.5h.2q4.2-7.5 13.4-7.5a17.9 17.9 0 0 1 6.8 1.1 11.1 11.1 0 0 1 4.4 3.1 11.5 11.5 0 0 1 2.3 4.7 25.5 25.5 0 0 1 .7 6.1v27.1H622v-27.8a8.2 8.2 0 0 0-2.2-6 8.3 8.3 0 0 0-6.1-2.2 13.8 13.8 0 0 0-5.4 1 10.1 10.1 0 0 0-3.8 2.7 11.7 11.7 0 0 0-2.3 4.1 16.7 16.7 0 0 0-.8 5.1v23.2h-6.8v-41.2z"/></svg>